<svg width="38" height="40" viewBox="0 0 38 40" fill="none" xmlns="http://www.w3.org/2000/svg">
<path d="M0.0307617 38.11H31.6562V19.3047C31.8246 19.4297 31.9881 19.5504 32.1476 19.6682C32.6167 20.0145 33.0518 20.3357 33.4783 20.669C33.5571 20.7304 33.5834 20.9012 33.5834 21.0194C33.5878 27.239 33.5878 33.4585 33.5856 39.6802C33.5856 39.7346 33.5784 39.7881 33.5698 39.852C33.5641 39.8937 33.5579 39.9398 33.5527 39.9934H33.1191C31.4113 39.9934 29.7034 39.9933 27.9955 39.9933C19.4368 39.993 10.878 39.9927 2.31929 40C2.01707 40 1.80464 39.9102 1.60097 39.6956C1.25486 39.3278 0.896762 38.9721 0.517437 38.5952C0.359132 38.438 0.19713 38.277 0.0307617 38.11Z" fill="url(#paint0_linear_291_2889)"/>
<path d="M0.0307617 38.11H31.6562V19.3047C31.8246 19.4297 31.9881 19.5504 32.1476 19.6682C32.6167 20.0145 33.0518 20.3357 33.4783 20.669C33.5571 20.7304 33.5834 20.9012 33.5834 21.0194C33.5878 27.239 33.5878 33.4585 33.5856 39.6802C33.5856 39.7346 33.5784 39.7881 33.5698 39.852C33.5641 39.8937 33.5579 39.9398 33.5527 39.9934H33.1191C31.4113 39.9934 29.7034 39.9933 27.9955 39.9933C19.4368 39.993 10.878 39.9927 2.31929 40C2.01707 40 1.80464 39.9102 1.60097 39.6956C1.25486 39.3278 0.896762 38.9721 0.517437 38.5952C0.359132 38.438 0.19713 38.277 0.0307617 38.11Z" stroke="black"/>
<path d="M29.591 34.1178V35.9946H0.00437755V35.5961C0.00437755 34.1651 0.00446536 32.7341 0.00455317 31.3031C0.00490412 25.5838 0.00525508 19.8645 0 14.1453C0 13.8846 0.0656976 13.7116 0.289075 13.5605C0.653289 13.3101 1.00909 13.045 1.38563 12.7644C1.55247 12.6401 1.72338 12.5128 1.9009 12.3823V34.12C11.1536 34.1178 20.3624 34.1178 29.591 34.1178Z" fill="url(#paint1_linear_291_2889)"/>
<path d="M29.591 34.1178V35.9946H0.00437755V35.5961C0.00437755 34.1651 0.00446536 32.7341 0.00455317 31.3031C0.00490412 25.5838 0.00525508 19.8645 0 14.1453C0 13.8846 0.0656976 13.7116 0.289075 13.5605C0.653289 13.3101 1.00909 13.045 1.38563 12.7644C1.55247 12.6401 1.72338 12.5128 1.9009 12.3823V34.12C11.1536 34.1178 20.3624 34.1178 29.591 34.1178Z" stroke="black"/>
<path d="M35.6638 39.8908V39.4375C35.6638 38.1545 35.6636 36.8715 35.6635 35.5884C35.6628 30.4542 35.6621 25.3191 35.6726 20.1854C35.6726 19.8131 35.5521 19.6006 35.2609 19.386C32.9129 17.6636 30.5683 15.9371 28.2237 14.2107C26.2995 12.7939 24.3754 11.3771 22.4495 9.96255C22.2239 9.79611 22.1319 9.63186 22.1407 9.35155C22.1561 8.90604 22.1531 8.45946 22.15 7.9861C22.1486 7.78466 22.1473 7.57836 22.1473 7.36523C22.1537 7.36989 22.1601 7.37453 22.1665 7.37917C22.5457 7.65334 22.8644 7.88381 23.1809 8.11639C24.3197 8.95364 25.4581 9.79114 26.5965 10.6286C30.0974 13.2041 33.598 15.7793 37.1048 18.3458C37.4486 18.5976 37.5669 18.856 37.5669 19.2787C37.5538 25.4216 37.556 31.5645 37.5625 37.7052C37.5625 37.9877 37.4881 38.1892 37.2844 38.3906C36.9181 38.7492 36.5648 39.1209 36.2116 39.4926C36.0644 39.6476 35.9171 39.8025 35.7689 39.9565C35.7361 39.9346 35.701 39.9127 35.6638 39.8908Z" fill="url(#paint2_linear_291_2889)"/>
<path d="M35.6638 39.8908V39.4375C35.6638 38.1545 35.6636 36.8715 35.6635 35.5884C35.6628 30.4542 35.6621 25.3191 35.6726 20.1854C35.6726 19.8131 35.5521 19.6006 35.2609 19.386C32.9129 17.6636 30.5683 15.9371 28.2237 14.2107C26.2995 12.7939 24.3754 11.3771 22.4495 9.96255C22.2239 9.79611 22.1319 9.63186 22.1407 9.35155C22.1561 8.90604 22.1531 8.45946 22.15 7.9861C22.1486 7.78466 22.1473 7.57836 22.1473 7.36523C22.1537 7.36989 22.1601 7.37453 22.1665 7.37917C22.5457 7.65334 22.8644 7.88381 23.1809 8.11639C24.3197 8.95364 25.4581 9.79114 26.5965 10.6286C30.0974 13.2041 33.598 15.7793 37.1048 18.3458C37.4486 18.5976 37.5669 18.856 37.5669 19.2787C37.5538 25.4216 37.556 31.5645 37.5625 37.7052C37.5625 37.9877 37.4881 38.1892 37.2844 38.3906C36.9181 38.7492 36.5648 39.1209 36.2116 39.4926C36.0644 39.6476 35.9171 39.8025 35.7689 39.9565C35.7361 39.9346 35.701 39.9127 35.6638 39.8908Z" stroke="black"/>
<path d="M5.89577 32.0591C5.7218 31.9302 5.55218 31.8059 5.3862 31.6842C4.94 31.3572 4.52016 31.0494 4.11313 30.7254C4.02115 30.6509 4.00143 30.4473 4.00143 30.3027C3.99618 28.8681 3.99653 27.4334 3.99688 25.9988C3.99697 25.6399 3.99706 25.2809 3.99706 24.9219C3.99706 24.0086 3.99714 23.0951 3.99723 22.1816C3.99758 18.5261 3.99793 14.8698 3.99268 11.2149C3.99268 10.9565 4.05837 10.7878 4.27518 10.628C7.69523 8.12128 11.1119 5.61013 14.5292 3.09849C15.8888 2.09923 17.2485 1.0999 18.6086 0.100744C18.6284 0.0865584 18.6511 0.0742087 18.6943 0.0506034C18.7178 0.0377663 18.7474 0.0216003 18.786 0C18.786 0.133429 18.7809 0.263771 18.7759 0.391376C18.7653 0.665892 18.7551 0.92774 18.7969 1.1804C18.9371 2.03668 18.567 2.52943 17.8771 3.02655C15.2574 4.91186 12.6575 6.82387 10.0574 8.73599C8.78854 9.66914 7.51963 10.6023 6.24835 11.5324C5.98556 11.723 5.89139 11.92 5.89139 12.242C5.8999 17.2412 5.89915 22.2418 5.89839 27.2416C5.89817 28.6701 5.89796 30.0986 5.89796 31.5269C5.89577 31.6758 5.89577 31.8268 5.89577 32.0587V32.0591Z" fill="url(#paint3_linear_291_2889)"/>
<path d="M5.89577 32.0591C5.7218 31.9302 5.55218 31.8059 5.3862 31.6842C4.94 31.3572 4.52016 31.0494 4.11313 30.7254C4.02115 30.6509 4.00143 30.4473 4.00143 30.3027C3.99618 28.8681 3.99653 27.4334 3.99688 25.9988C3.99697 25.6399 3.99706 25.2809 3.99706 24.9219C3.99706 24.0086 3.99714 23.0951 3.99723 22.1816C3.99758 18.5261 3.99793 14.8698 3.99268 11.2149C3.99268 10.9565 4.05837 10.7878 4.27518 10.628C7.69523 8.12128 11.1119 5.61013 14.5292 3.09849C15.8888 2.09923 17.2485 1.0999 18.6086 0.100744C18.6284 0.0865584 18.6511 0.0742087 18.6943 0.0506034C18.7178 0.0377663 18.7474 0.0216003 18.786 0C18.786 0.133429 18.7809 0.263771 18.7759 0.391376C18.7653 0.665892 18.7551 0.92774 18.7969 1.1804C18.9371 2.03668 18.567 2.52943 17.8771 3.02655C15.2574 4.91186 12.6575 6.82387 10.0574 8.73599C8.78854 9.66914 7.51963 10.6023 6.24835 11.5324C5.98556 11.723 5.89139 11.92 5.89139 12.242C5.8999 17.2412 5.89915 22.2418 5.89839 27.2416C5.89817 28.6701 5.89796 30.0986 5.89796 31.5269C5.89577 31.6758 5.89577 31.8268 5.89577 32.0587V32.0591Z" stroke="black"/>
<path d="M37.5603 16.127C36.8445 15.6 36.1538 15.0926 35.4732 14.5926C35.0169 14.2574 34.5651 13.9255 34.1133 13.5932C33.6394 13.2445 33.1656 12.8958 32.6917 12.5471C29.2762 10.0338 25.8614 7.52102 22.4517 4.99977C22.2064 4.818 22.0553 4.83333 21.8166 5.01072C17.8356 7.95188 13.8494 10.886 9.86424 13.8195C9.39247 14.1667 8.9207 14.514 8.44897 14.8612C8.33857 14.9427 8.22667 15.0211 8.07496 15.1275C8.0431 15.1498 8.00948 15.1734 7.97374 15.1985C7.97374 14.9972 7.97289 14.8007 7.97206 14.6079C7.96961 14.0434 7.9673 13.51 7.98688 12.9779C7.99126 12.8596 8.15113 12.726 8.26939 12.6384C11.0507 10.5886 13.8341 8.54315 16.6176 6.49771C18.3783 5.20344 20.1391 3.90916 21.8932 2.60612C22.0838 2.46377 22.202 2.46158 22.3969 2.60612C27.3463 6.25681 32.3 9.90313 37.2581 13.5407C37.4815 13.7049 37.5779 13.8736 37.5669 14.1539C37.5516 14.5908 37.5545 15.0299 37.5576 15.5011C37.559 15.7031 37.5603 15.9109 37.5603 16.127Z" fill="url(#paint4_linear_291_2889)"/>
<path d="M37.5603 16.127C36.8445 15.6 36.1538 15.0926 35.4732 14.5926C35.0169 14.2574 34.5651 13.9255 34.1133 13.5932C33.6394 13.2445 33.1656 12.8958 32.6917 12.5471C29.2762 10.0338 25.8614 7.52102 22.4517 4.99977C22.2064 4.818 22.0553 4.83333 21.8166 5.01072C17.8356 7.95188 13.8494 10.886 9.86424 13.8195C9.39247 14.1667 8.9207 14.514 8.44897 14.8612C8.33857 14.9427 8.22667 15.0211 8.07496 15.1275C8.0431 15.1498 8.00948 15.1734 7.97374 15.1985C7.97374 14.9972 7.97289 14.8007 7.97206 14.6079C7.96961 14.0434 7.9673 13.51 7.98688 12.9779C7.99126 12.8596 8.15113 12.726 8.26939 12.6384C11.0507 10.5886 13.8341 8.54315 16.6176 6.49771C18.3783 5.20344 20.1391 3.90916 21.8932 2.60612C22.0838 2.46377 22.202 2.46158 22.3969 2.60612C27.3463 6.25681 32.3 9.90313 37.2581 13.5407C37.4815 13.7049 37.5779 13.8736 37.5669 14.1539C37.5516 14.5908 37.5545 15.0299 37.5576 15.5011C37.559 15.7031 37.5603 15.9109 37.5603 16.127Z" stroke="black"/>
<defs>
<linearGradient id="paint0_linear_291_2889" x1="20" y1="-3.63639" x2="19.2702" y2="39.9878" gradientUnits="userSpaceOnUse">
<stop stop-color="#584139"/>
<stop offset="1" stop-color="#F0DAC0"/>
</linearGradient>
<linearGradient id="paint1_linear_291_2889" x1="20" y1="-2.72704" x2="19.6201" y2="41.8152" gradientUnits="userSpaceOnUse">
<stop stop-color="#584139"/>
<stop offset="1" stop-color="#F0DAC0"/>
</linearGradient>
<linearGradient id="paint2_linear_291_2889" x1="20.0001" y1="-3.63616" x2="20.9808" y2="41.7972" gradientUnits="userSpaceOnUse">
<stop stop-color="#584139"/>
<stop offset="1" stop-color="#F0DAC0"/>
</linearGradient>
<linearGradient id="paint3_linear_291_2889" x1="18.1819" y1="-1.81818" x2="19.1596" y2="41.7963" gradientUnits="userSpaceOnUse">
<stop stop-color="#584139"/>
<stop offset="1" stop-color="#F0DAC0"/>
</linearGradient>
<linearGradient id="paint4_linear_291_2889" x1="21.8181" y1="-1.81805" x2="20.6228" y2="41.7855" gradientUnits="userSpaceOnUse">
<stop stop-color="#9F7E74"/>
<stop offset="1" stop-color="#584139"/>
</linearGradient>
</defs>
</svg>
