<svg width="162" height="25" viewBox="0 0 162 25" fill="none" xmlns="http://www.w3.org/2000/svg">
<path d="M7.36822 2.296L7.41622 2.272C8.13622 2.464 8.71222 2.584 9.14422 2.632C9.57622 2.68 9.80822 2.64 9.84022 2.512L9.91222 2.152C9.91222 2.184 9.99222 2.2 10.1522 2.2C10.3122 2.2 10.3922 2.184 10.3922 2.152V6.688C10.3922 6.656 10.3602 6.64 10.2962 6.64C10.2322 6.624 10.1602 6.616 10.0802 6.616C10.0002 6.6 9.92822 6.6 9.86422 6.616C9.80022 6.616 9.76822 6.632 9.76822 6.664L9.60022 5.968C9.32822 4.944 8.83222 4.12 8.11222 3.496C7.39222 2.872 6.56022 2.56 5.61622 2.56C4.84822 2.56 4.23222 2.832 3.76822 3.376C3.32022 3.92 3.09622 4.64 3.09622 5.536C3.09622 6.256 3.43222 6.96 4.10422 7.648C4.77622 8.336 5.76822 8.92 7.08022 9.4C8.48822 9.912 9.53622 10.632 10.2242 11.56C10.9282 12.472 11.2802 13.472 11.2802 14.56C11.2802 15.248 11.1602 15.88 10.9202 16.456C10.6962 17.016 10.3682 17.496 9.93622 17.896C9.50422 18.296 8.98422 18.608 8.37622 18.832C7.78422 19.04 7.12822 19.144 6.40822 19.144C5.62422 19.144 4.87222 19 4.15222 18.712C3.38422 18.44 2.76022 18.28 2.28022 18.232C1.80022 18.168 1.54422 18.232 1.51222 18.424L1.44022 18.928C1.44022 18.896 1.36022 18.88 1.20022 18.88C1.04022 18.88 0.960216 18.896 0.960216 18.928V13.576C0.960216 13.592 0.992216 13.608 1.05622 13.624C1.12022 13.64 1.19222 13.656 1.27222 13.672C1.35222 13.672 1.42422 13.664 1.48822 13.648C1.55222 13.632 1.58422 13.616 1.58422 13.6L1.75222 14.32C2.02422 15.44 2.52022 16.376 3.24022 17.128C3.96022 17.864 4.77622 18.296 5.68822 18.424C6.80822 18.568 7.71222 18.344 8.40022 17.752C9.08822 17.16 9.43222 16.32 9.43222 15.232C9.43222 14.592 9.11222 13.968 8.47222 13.36C7.84822 12.752 6.91222 12.216 5.66422 11.752C4.20822 11.208 3.11222 10.464 2.37622 9.52C1.64022 8.576 1.27222 7.536 1.27222 6.4C1.27222 5.744 1.37622 5.152 1.58422 4.624C1.79222 4.08 2.08022 3.616 2.44822 3.232C2.81622 2.848 3.26422 2.552 3.79222 2.344C4.32022 2.136 4.90422 2.032 5.54422 2.032C6.15222 2.032 6.74422 2.12 7.32022 2.296H7.36822ZM20.3599 18.952H14.3359V18.376L14.6239 18.4C15.1039 18.432 15.4879 18.232 15.7759 17.8C16.0799 17.368 16.2319 16.784 16.2319 16.048V5.152C16.2319 4.416 16.0799 3.832 15.7759 3.4C15.4879 2.968 15.1039 2.768 14.6239 2.8L14.3359 2.824C14.3519 2.76 14.3519 2.656 14.3359 2.512C14.3359 2.368 14.3359 2.272 14.3359 2.224H20.6719C21.4719 2.224 22.1919 2.336 22.8319 2.56C23.4879 2.784 24.0479 3.104 24.5119 3.52C24.9759 3.92 25.3359 4.416 25.5919 5.008C25.8479 5.584 25.9759 6.224 25.9759 6.928C25.9759 7.68 25.8239 8.328 25.5199 8.872C25.2159 9.416 24.7759 9.872 24.1999 10.24C23.6399 10.592 22.9679 10.856 22.1839 11.032C21.3999 11.192 20.5279 11.272 19.5679 11.272H18.4639V16.024C18.4639 16.76 18.6079 17.344 18.8959 17.776C19.1999 18.208 19.5919 18.408 20.0719 18.376L20.3599 18.352C20.3439 18.416 20.3359 18.52 20.3359 18.664C20.3519 18.808 20.3599 18.904 20.3599 18.952ZM18.4639 10.84H19.6159C20.9119 10.84 21.9519 10.504 22.7359 9.832C23.5359 9.144 23.9359 8.072 23.9359 6.616C23.9359 5.416 23.5919 4.456 22.9039 3.736C22.2159 3.016 21.2959 2.656 20.1439 2.656H18.4639V10.84ZM43.1539 18.256H43.4899C43.4739 18.336 43.4659 18.464 43.4659 18.64C43.4819 18.8 43.4899 18.912 43.4899 18.976H36.2659V18.28H36.6979C37.4179 18.312 37.8899 18.016 38.1139 17.392C38.3379 16.768 38.2819 15.92 37.9459 14.848L37.2979 12.76H31.7059L30.9379 15.16C30.6819 16.152 30.6739 16.928 30.9139 17.488C31.1699 18.048 31.6419 18.312 32.3299 18.28H32.7619C32.7459 18.344 32.7379 18.464 32.7379 18.64C32.7539 18.816 32.7619 18.928 32.7619 18.976H26.3059C26.3219 18.912 26.3299 18.848 26.3299 18.784C26.3459 18.656 26.3539 18.568 26.3539 18.52C26.3539 18.488 26.3459 18.44 26.3299 18.376C26.3299 18.344 26.3219 18.312 26.3059 18.28H26.7619C27.5139 18.312 28.2179 18.024 28.8739 17.416C29.5299 16.808 30.0419 15.976 30.4099 14.92L34.2739 3.16C34.2579 3.128 34.2419 3.088 34.2259 3.04C34.2259 2.992 34.2179 2.952 34.2019 2.92C34.7459 2.84 35.1699 2.704 35.4739 2.512C35.7779 2.304 35.9059 2.072 35.8579 1.816H36.0739C36.1059 1.816 36.1379 1.872 36.1699 1.984C36.2179 2.096 36.2579 2.224 36.2899 2.368C36.3379 2.528 36.3859 2.712 36.4339 2.92L40.2499 14.824C40.6019 15.896 41.0419 16.744 41.5699 17.368C42.0979 17.992 42.6259 18.288 43.1539 18.256ZM31.9219 12.16H37.1299L34.5379 3.856L31.9219 12.16ZM59.8343 7.24L59.6663 6.664C59.4103 5.736 58.9623 4.928 58.3223 4.24C57.6983 3.552 56.9783 3.096 56.1623 2.872C55.6343 2.728 55.0423 2.656 54.3863 2.656C53.5063 2.656 52.7063 2.848 51.9863 3.232C51.2663 3.616 50.6423 4.16 50.1143 4.864C49.6023 5.568 49.2023 6.416 48.9143 7.408C48.6423 8.384 48.5063 9.472 48.5063 10.672C48.5063 11.872 48.6423 12.968 48.9143 13.96C49.1863 14.952 49.5623 15.8 50.0423 16.504C50.5383 17.208 51.1303 17.752 51.8183 18.136C52.5223 18.52 53.2983 18.712 54.1463 18.712C54.5303 18.712 54.8903 18.688 55.2263 18.64C55.5623 18.576 55.8903 18.496 56.2103 18.4C57.0263 18.128 57.7463 17.656 58.3703 16.984C59.0103 16.296 59.4503 15.512 59.6903 14.632L59.8583 14.008C59.8583 14.024 59.8903 14.04 59.9543 14.056C60.0183 14.072 60.0903 14.08 60.1703 14.08C60.2503 14.08 60.3223 14.072 60.3863 14.056C60.4503 14.04 60.4823 14.024 60.4823 14.008V19C60.4823 18.968 60.4023 18.952 60.2423 18.952C60.0823 18.952 60.0023 18.968 60.0023 19L59.9303 18.544C59.8983 18.32 59.6583 18.216 59.2103 18.232C58.7783 18.232 58.2183 18.344 57.5303 18.568C56.5223 18.984 55.3223 19.192 53.9303 19.192C52.7463 19.192 51.6663 18.992 50.6903 18.592C49.7303 18.176 48.9063 17.592 48.2183 16.84C47.5303 16.088 46.9943 15.184 46.6103 14.128C46.2423 13.072 46.0583 11.904 46.0583 10.624C46.0583 9.344 46.2503 8.176 46.6343 7.12C47.0343 6.064 47.5863 5.16 48.2903 4.408C48.9943 3.656 49.8423 3.08 50.8343 2.68C51.8263 2.264 52.9303 2.056 54.1463 2.056C54.8663 2.056 55.4983 2.104 56.0423 2.2C56.5863 2.296 57.0823 2.432 57.5303 2.608C58.2183 2.832 58.7783 2.96 59.2103 2.992C59.6423 3.024 59.8743 2.944 59.9063 2.752L59.9783 2.32C59.9783 2.352 60.0583 2.368 60.2183 2.368C60.3783 2.368 60.4583 2.352 60.4583 2.32V7.24C60.4583 7.208 60.4263 7.192 60.3623 7.192C60.2983 7.176 60.2263 7.168 60.1463 7.168C60.0663 7.168 59.9943 7.176 59.9303 7.192C59.8663 7.192 59.8343 7.208 59.8343 7.24ZM75.0544 2.488L75.0784 2.536C75.1424 3.032 75.2064 3.576 75.2704 4.168C75.3344 4.76 75.3984 5.304 75.4624 5.8C75.3984 5.768 75.3184 5.76 75.2224 5.776C75.1264 5.792 75.0464 5.8 74.9824 5.8L74.8384 5.344C74.6144 4.576 74.1424 3.96 73.4224 3.496C72.7184 3.016 71.8944 2.776 70.9504 2.776H68.0944V9.904H69.5344C70.4784 9.904 71.2704 9.672 71.9104 9.208C72.5664 8.728 72.9584 8.104 73.0864 7.336L73.1824 6.88C73.2464 6.896 73.3024 6.904 73.3504 6.904C73.4624 6.92 73.5264 6.928 73.5424 6.928C73.5584 6.928 73.5824 6.92 73.6144 6.904C73.6304 6.904 73.6464 6.896 73.6624 6.88V13.432C73.5984 13.4 73.5184 13.392 73.4224 13.408C73.3264 13.424 73.2464 13.432 73.1824 13.432L73.0864 12.976C72.9584 12.208 72.5664 11.592 71.9104 11.128C71.2704 10.648 70.4784 10.408 69.5344 10.408H68.0944V14.128C68.0944 14.72 68.1344 15.272 68.2144 15.784C68.2944 16.28 68.4624 16.72 68.7184 17.104C68.9744 17.472 69.3424 17.776 69.8224 18.016C70.3184 18.24 70.9824 18.392 71.8144 18.472C72.7264 18.376 73.5104 18.128 74.1664 17.728C74.8384 17.312 75.2864 16.792 75.5104 16.168L75.6544 15.736C75.7184 15.752 75.7744 15.76 75.8224 15.76C75.9344 15.776 75.9984 15.784 76.0144 15.784C76.0304 15.784 76.0544 15.776 76.0864 15.76C76.1024 15.76 76.1184 15.752 76.1344 15.736C76.0544 16.2 75.9664 16.704 75.8704 17.248C75.7904 17.792 75.7104 18.296 75.6304 18.76L75.5824 18.976H63.5584V18.4L63.9184 18.424C64.5104 18.456 64.9824 18.216 65.3344 17.704C65.7024 17.192 65.8864 16.504 65.8864 15.64V5.632C65.8864 4.768 65.7024 4.08 65.3344 3.568C64.9824 3.056 64.5104 2.816 63.9184 2.848L63.5584 2.872C63.5744 2.808 63.5744 2.704 63.5584 2.56C63.5584 2.416 63.5584 2.32 63.5584 2.272H75.0304L75.0544 2.488ZM84.9424 2.824L84.9904 2.8C83.8864 2.816 82.9344 3.048 82.1344 3.496C81.3504 3.928 80.8544 4.504 80.6464 5.224L80.5024 5.656C80.4704 5.64 80.4384 5.632 80.4064 5.632C80.3424 5.616 80.3024 5.608 80.2864 5.608C80.2544 5.608 80.2064 5.616 80.1424 5.632C80.1104 5.632 80.0784 5.64 80.0464 5.656C80.1104 5 80.1584 4.432 80.1904 3.952C80.2384 3.472 80.2784 3.112 80.3104 2.872H80.2864L80.3584 2.248H92.3824V2.704L81.9904 18.448L88.2544 18.328C89.2624 18.248 90.1504 17.992 90.9184 17.56C91.6864 17.128 92.2064 16.576 92.4784 15.904L92.6464 15.472C92.6464 15.52 92.7184 15.544 92.8624 15.544C93.0224 15.544 93.1024 15.528 93.1024 15.496L92.3824 18.616H92.3344L92.2624 18.952H79.3264V18.496L89.9344 2.752L84.9424 2.824ZM105.368 10.696C104.816 13.312 105.92 15.04 108.152 15.04C110.096 15.04 111.536 13.72 112.016 11.44C112.568 8.824 111.44 7.12 109.208 7.12C107.24 7.12 105.872 8.416 105.368 10.696ZM103.856 11.08C104.408 8.512 106.736 6.76 109.616 6.76C110.456 6.76 111.2 6.904 111.8 7.192C113 5.944 114.2 5.2 115.112 5.2C116.288 5.2 116.528 6.448 115.544 7.48C115.52 6.784 115.04 6.376 114.272 6.376C113.576 6.376 112.808 6.712 112.04 7.336C113.312 8.032 113.888 9.4 113.528 11.08C112.976 13.624 110.648 15.4 107.792 15.4C106.88 15.4 106.112 15.232 105.488 14.92C105.128 15.328 104.912 15.664 104.84 16C104.72 16.6 105.08 16.96 106.04 17.128C107.432 17.368 109.52 17.152 111.008 17.416C112.64 17.704 113.336 18.544 113.048 19.912C112.544 22.288 109.568 24.04 106.016 24.04C102.896 24.04 101.048 22.696 101.456 20.728C101.696 19.624 102.536 18.904 103.496 18.904C103.688 18.904 103.856 18.928 104.048 18.976C103.616 19.144 103.328 19.6 103.184 20.296C102.752 22.288 104.144 23.632 106.64 23.632C109.256 23.632 111.92 22.192 112.256 20.56C112.448 19.696 111.92 19.144 110.744 18.856C109.208 18.496 107.048 18.712 105.56 18.544C104.144 18.376 103.52 17.872 103.712 17.056C103.832 16.408 104.432 15.568 105.248 14.776C104.048 14.056 103.496 12.736 103.856 11.08ZM120.197 18.688C122.309 18.688 124.781 16 125.429 12.952L126.269 9.04C126.317 8.8 126.341 8.584 126.341 8.416C126.341 7.744 126.029 7.408 125.405 7.408L125.453 7.24C126.725 7.24 127.637 7.072 128.189 6.76L125.837 17.8C125.741 18.256 125.837 18.448 126.053 18.448C126.269 18.448 126.461 18.232 126.581 17.8H126.749C126.557 18.64 126.101 19.072 125.357 19.072C124.589 19.072 124.229 18.592 124.397 17.8L124.997 14.944C123.725 17.584 121.589 19.24 119.453 19.24C117.413 19.24 116.501 17.728 117.005 15.304L118.349 9.04C118.397 8.8 118.421 8.584 118.421 8.416C118.421 7.744 118.109 7.408 117.485 7.408L117.533 7.24C118.805 7.24 119.717 7.072 120.269 6.76L118.517 15.04C118.037 17.296 118.685 18.688 120.197 18.688ZM133.054 3.688C133.174 3.112 133.75 2.656 134.326 2.656C134.902 2.656 135.262 3.112 135.142 3.688C135.022 4.24 134.446 4.696 133.87 4.696C133.294 4.696 132.934 4.24 133.054 3.688ZM132.046 17.8C131.95 18.256 132.046 18.448 132.262 18.448C132.502 18.448 132.67 18.232 132.79 17.8H132.958C132.79 18.64 132.31 19.072 131.566 19.072C130.798 19.072 130.438 18.616 130.606 17.8L132.478 9.04C132.526 8.8 132.55 8.584 132.55 8.416C132.55 7.744 132.238 7.408 131.614 7.408L131.662 7.24C132.886 7.24 133.798 7.072 134.398 6.76L132.046 17.8ZM146.296 17.8C146.2 18.256 146.296 18.448 146.512 18.448C146.728 18.448 146.92 18.232 147.04 17.8H147.208C147.016 18.64 146.56 19.072 145.816 19.072C145.024 19.072 144.688 18.616 144.856 17.8L144.976 17.248C143.776 18.568 142.336 19.24 140.632 19.24C137.32 19.24 135.64 16.744 136.432 13.024C137.224 9.304 140.032 6.76 143.344 6.76C144.88 6.76 146.08 7.288 146.872 8.296L148 2.992C148.048 2.776 148.072 2.56 148.072 2.368C148.072 1.72 147.76 1.408 147.136 1.408L147.184 1.24C148.408 1.24 149.32 1.072 149.92 0.759999L146.296 17.8ZM145.264 15.928L146.392 10.528C146.296 8.464 144.952 7.12 142.984 7.12C140.584 7.12 138.784 9.064 138.064 12.472C137.248 16.312 138.448 18.88 141.064 18.88C142.744 18.88 144.232 17.824 145.264 15.928ZM152.354 12.16H159.794C160.13 8.944 159.098 7.12 156.914 7.12C154.73 7.12 153.05 8.992 152.354 12.16ZM150.722 13C151.49 9.352 154.25 6.76 157.322 6.76C160.226 6.76 161.762 9.04 161.186 12.52H152.282C151.562 16.24 152.978 18.64 155.954 18.64C157.394 18.64 158.642 18.04 159.914 16.744H160.25C158.786 18.472 157.274 19.24 155.258 19.24C151.802 19.24 149.93 16.696 150.722 13Z" fill="#584139"/>
</svg>
