<svg width="215" height="42" viewBox="0 0 215 42" fill="none" xmlns="http://www.w3.org/2000/svg">
<path d="M0.0307617 38.11H31.6562V19.3047C31.8246 19.4297 31.9881 19.5504 32.1476 19.6682C32.6167 20.0145 33.0518 20.3357 33.4783 20.669C33.5571 20.7304 33.5834 20.9012 33.5834 21.0194C33.5878 27.239 33.5878 33.4585 33.5856 39.6802C33.5856 39.7346 33.5784 39.7881 33.5698 39.852C33.5641 39.8937 33.5579 39.9398 33.5527 39.9934H33.1191C31.4113 39.9934 29.7034 39.9933 27.9955 39.9933C19.4368 39.993 10.878 39.9927 2.31929 40C2.01707 40 1.80464 39.9102 1.60097 39.6956C1.25486 39.3278 0.896762 38.9721 0.517437 38.5952C0.359132 38.438 0.19713 38.277 0.0307617 38.11Z" fill="url(#paint0_linear_291_2888)"/>
<path d="M0.0307617 38.11H31.6562V19.3047C31.8246 19.4297 31.9881 19.5504 32.1476 19.6682C32.6167 20.0145 33.0518 20.3357 33.4783 20.669C33.5571 20.7304 33.5834 20.9012 33.5834 21.0194C33.5878 27.239 33.5878 33.4585 33.5856 39.6802C33.5856 39.7346 33.5784 39.7881 33.5698 39.852C33.5641 39.8937 33.5579 39.9398 33.5527 39.9934H33.1191C31.4113 39.9934 29.7034 39.9933 27.9955 39.9933C19.4368 39.993 10.878 39.9927 2.31929 40C2.01707 40 1.80464 39.9102 1.60097 39.6956C1.25486 39.3278 0.896762 38.9721 0.517437 38.5952C0.359132 38.438 0.19713 38.277 0.0307617 38.11Z" stroke="black"/>
<path d="M29.591 34.1178V35.9946H0.00437755V35.5961C0.00437755 34.1651 0.00446536 32.7341 0.00455317 31.3031C0.00490412 25.5838 0.00525508 19.8645 0 14.1453C0 13.8846 0.0656976 13.7116 0.289075 13.5605C0.653289 13.3101 1.00909 13.045 1.38563 12.7644C1.55247 12.6401 1.72338 12.5128 1.9009 12.3823V34.12C11.1536 34.1178 20.3624 34.1178 29.591 34.1178Z" fill="url(#paint1_linear_291_2888)"/>
<path d="M29.591 34.1178V35.9946H0.00437755V35.5961C0.00437755 34.1651 0.00446536 32.7341 0.00455317 31.3031C0.00490412 25.5838 0.00525508 19.8645 0 14.1453C0 13.8846 0.0656976 13.7116 0.289075 13.5605C0.653289 13.3101 1.00909 13.045 1.38563 12.7644C1.55247 12.6401 1.72338 12.5128 1.9009 12.3823V34.12C11.1536 34.1178 20.3624 34.1178 29.591 34.1178Z" stroke="black"/>
<path d="M35.6638 39.8908V39.4375C35.6638 38.1545 35.6636 36.8715 35.6635 35.5884C35.6628 30.4542 35.6621 25.3191 35.6726 20.1854C35.6726 19.8131 35.5521 19.6006 35.2609 19.386C32.9129 17.6636 30.5683 15.9371 28.2237 14.2107C26.2995 12.7939 24.3754 11.3771 22.4495 9.96255C22.2239 9.79611 22.1319 9.63186 22.1407 9.35155C22.1561 8.90604 22.1531 8.45946 22.15 7.9861C22.1486 7.78466 22.1473 7.57836 22.1473 7.36523C22.1537 7.36989 22.1601 7.37453 22.1665 7.37917C22.5457 7.65334 22.8644 7.88381 23.1809 8.11639C24.3197 8.95364 25.4581 9.79114 26.5965 10.6286C30.0974 13.2041 33.598 15.7793 37.1048 18.3458C37.4486 18.5976 37.5669 18.856 37.5669 19.2787C37.5538 25.4216 37.556 31.5645 37.5625 37.7052C37.5625 37.9877 37.4881 38.1892 37.2844 38.3906C36.9181 38.7492 36.5648 39.1209 36.2116 39.4926C36.0644 39.6476 35.9171 39.8025 35.7689 39.9565C35.7361 39.9346 35.701 39.9127 35.6638 39.8908Z" fill="url(#paint2_linear_291_2888)"/>
<path d="M35.6638 39.8908V39.4375C35.6638 38.1545 35.6636 36.8715 35.6635 35.5884C35.6628 30.4542 35.6621 25.3191 35.6726 20.1854C35.6726 19.8131 35.5521 19.6006 35.2609 19.386C32.9129 17.6636 30.5683 15.9371 28.2237 14.2107C26.2995 12.7939 24.3754 11.3771 22.4495 9.96255C22.2239 9.79611 22.1319 9.63186 22.1407 9.35155C22.1561 8.90604 22.1531 8.45946 22.15 7.9861C22.1486 7.78466 22.1473 7.57836 22.1473 7.36523C22.1537 7.36989 22.1601 7.37453 22.1665 7.37917C22.5457 7.65334 22.8644 7.88381 23.1809 8.11639C24.3197 8.95364 25.4581 9.79114 26.5965 10.6286C30.0974 13.2041 33.598 15.7793 37.1048 18.3458C37.4486 18.5976 37.5669 18.856 37.5669 19.2787C37.5538 25.4216 37.556 31.5645 37.5625 37.7052C37.5625 37.9877 37.4881 38.1892 37.2844 38.3906C36.9181 38.7492 36.5648 39.1209 36.2116 39.4926C36.0644 39.6476 35.9171 39.8025 35.7689 39.9565C35.7361 39.9346 35.701 39.9127 35.6638 39.8908Z" stroke="black"/>
<path d="M5.89577 32.0591C5.7218 31.9302 5.55218 31.8059 5.3862 31.6842C4.94 31.3572 4.52016 31.0494 4.11313 30.7254C4.02115 30.6509 4.00143 30.4473 4.00143 30.3027C3.99618 28.8681 3.99653 27.4334 3.99688 25.9988C3.99697 25.6399 3.99706 25.2809 3.99706 24.9219C3.99706 24.0086 3.99714 23.0951 3.99723 22.1816C3.99758 18.5261 3.99793 14.8698 3.99268 11.2149C3.99268 10.9565 4.05837 10.7878 4.27518 10.628C7.69523 8.12128 11.1119 5.61013 14.5292 3.09849C15.8888 2.09923 17.2485 1.0999 18.6086 0.100744C18.6284 0.0865584 18.6511 0.0742087 18.6943 0.0506034C18.7178 0.0377663 18.7474 0.0216003 18.786 0C18.786 0.133429 18.7809 0.263771 18.7759 0.391376C18.7653 0.665892 18.7551 0.92774 18.7969 1.1804C18.9371 2.03668 18.567 2.52943 17.8771 3.02655C15.2574 4.91186 12.6575 6.82387 10.0574 8.73599C8.78854 9.66914 7.51963 10.6023 6.24835 11.5324C5.98556 11.723 5.89139 11.92 5.89139 12.242C5.8999 17.2412 5.89915 22.2418 5.89839 27.2416C5.89817 28.6701 5.89796 30.0986 5.89796 31.5269C5.89577 31.6758 5.89577 31.8268 5.89577 32.0587V32.0591Z" fill="url(#paint3_linear_291_2888)"/>
<path d="M5.89577 32.0591C5.7218 31.9302 5.55218 31.8059 5.3862 31.6842C4.94 31.3572 4.52016 31.0494 4.11313 30.7254C4.02115 30.6509 4.00143 30.4473 4.00143 30.3027C3.99618 28.8681 3.99653 27.4334 3.99688 25.9988C3.99697 25.6399 3.99706 25.2809 3.99706 24.9219C3.99706 24.0086 3.99714 23.0951 3.99723 22.1816C3.99758 18.5261 3.99793 14.8698 3.99268 11.2149C3.99268 10.9565 4.05837 10.7878 4.27518 10.628C7.69523 8.12128 11.1119 5.61013 14.5292 3.09849C15.8888 2.09923 17.2485 1.0999 18.6086 0.100744C18.6284 0.0865584 18.6511 0.0742087 18.6943 0.0506034C18.7178 0.0377663 18.7474 0.0216003 18.786 0C18.786 0.133429 18.7809 0.263771 18.7759 0.391376C18.7653 0.665892 18.7551 0.92774 18.7969 1.1804C18.9371 2.03668 18.567 2.52943 17.8771 3.02655C15.2574 4.91186 12.6575 6.82387 10.0574 8.73599C8.78854 9.66914 7.51963 10.6023 6.24835 11.5324C5.98556 11.723 5.89139 11.92 5.89139 12.242C5.8999 17.2412 5.89915 22.2418 5.89839 27.2416C5.89817 28.6701 5.89796 30.0986 5.89796 31.5269C5.89577 31.6758 5.89577 31.8268 5.89577 32.0587V32.0591Z" stroke="black"/>
<path d="M37.5603 16.127C36.8445 15.6 36.1538 15.0926 35.4732 14.5926C35.0169 14.2574 34.5651 13.9255 34.1133 13.5932C33.6394 13.2445 33.1656 12.8958 32.6917 12.5471C29.2762 10.0338 25.8614 7.52102 22.4517 4.99977C22.2064 4.818 22.0553 4.83333 21.8166 5.01072C17.8356 7.95188 13.8494 10.886 9.86424 13.8195C9.39247 14.1667 8.9207 14.514 8.44897 14.8612C8.33857 14.9427 8.22667 15.0211 8.07496 15.1275C8.0431 15.1498 8.00948 15.1734 7.97374 15.1985C7.97374 14.9972 7.97289 14.8007 7.97206 14.6079C7.96961 14.0434 7.9673 13.51 7.98688 12.9779C7.99126 12.8596 8.15113 12.726 8.26939 12.6384C11.0507 10.5886 13.8341 8.54315 16.6176 6.49771C18.3783 5.20344 20.1391 3.90916 21.8932 2.60612C22.0838 2.46377 22.202 2.46158 22.3969 2.60612C27.3463 6.25681 32.3 9.90313 37.2581 13.5407C37.4815 13.7049 37.5779 13.8736 37.5669 14.1539C37.5516 14.5908 37.5545 15.0299 37.5576 15.5011C37.559 15.7031 37.5603 15.9109 37.5603 16.127Z" fill="url(#paint4_linear_291_2888)"/>
<path d="M37.5603 16.127C36.8445 15.6 36.1538 15.0926 35.4732 14.5926C35.0169 14.2574 34.5651 13.9255 34.1133 13.5932C33.6394 13.2445 33.1656 12.8958 32.6917 12.5471C29.2762 10.0338 25.8614 7.52102 22.4517 4.99977C22.2064 4.818 22.0553 4.83333 21.8166 5.01072C17.8356 7.95188 13.8494 10.886 9.86424 13.8195C9.39247 14.1667 8.9207 14.514 8.44897 14.8612C8.33857 14.9427 8.22667 15.0211 8.07496 15.1275C8.0431 15.1498 8.00948 15.1734 7.97374 15.1985C7.97374 14.9972 7.97289 14.8007 7.97206 14.6079C7.96961 14.0434 7.9673 13.51 7.98688 12.9779C7.99126 12.8596 8.15113 12.726 8.26939 12.6384C11.0507 10.5886 13.8341 8.54315 16.6176 6.49771C18.3783 5.20344 20.1391 3.90916 21.8932 2.60612C22.0838 2.46377 22.202 2.46158 22.3969 2.60612C27.3463 6.25681 32.3 9.90313 37.2581 13.5407C37.4815 13.7049 37.5779 13.8736 37.5669 14.1539C37.5516 14.5908 37.5545 15.0299 37.5576 15.5011C37.559 15.7031 37.5603 15.9109 37.5603 16.127Z" stroke="black"/>
<path d="M60.3682 19.296L60.4162 19.272C61.1362 19.464 61.7122 19.584 62.1442 19.632C62.5762 19.68 62.8082 19.64 62.8402 19.512L62.9122 19.152C62.9122 19.184 62.9922 19.2 63.1522 19.2C63.3122 19.2 63.3922 19.184 63.3922 19.152V23.688C63.3922 23.656 63.3602 23.64 63.2962 23.64C63.2322 23.624 63.1602 23.616 63.0802 23.616C63.0002 23.6 62.9282 23.6 62.8642 23.616C62.8002 23.616 62.7682 23.632 62.7682 23.664L62.6002 22.968C62.3282 21.944 61.8322 21.12 61.1122 20.496C60.3922 19.872 59.5602 19.56 58.6162 19.56C57.8482 19.56 57.2322 19.832 56.7682 20.376C56.3202 20.92 56.0962 21.64 56.0962 22.536C56.0962 23.256 56.4322 23.96 57.1042 24.648C57.7762 25.336 58.7682 25.92 60.0802 26.4C61.4882 26.912 62.5362 27.632 63.2242 28.56C63.9282 29.472 64.2802 30.472 64.2802 31.56C64.2802 32.248 64.1602 32.88 63.9202 33.456C63.6962 34.016 63.3682 34.496 62.9362 34.896C62.5042 35.296 61.9842 35.608 61.3762 35.832C60.7842 36.04 60.1282 36.144 59.4082 36.144C58.6242 36.144 57.8722 36 57.1522 35.712C56.3842 35.44 55.7602 35.28 55.2802 35.232C54.8002 35.168 54.5442 35.232 54.5122 35.424L54.4402 35.928C54.4402 35.896 54.3602 35.88 54.2002 35.88C54.0402 35.88 53.9602 35.896 53.9602 35.928V30.576C53.9602 30.592 53.9922 30.608 54.0562 30.624C54.1202 30.64 54.1922 30.656 54.2722 30.672C54.3522 30.672 54.4242 30.664 54.4882 30.648C54.5522 30.632 54.5842 30.616 54.5842 30.6L54.7522 31.32C55.0242 32.44 55.5202 33.376 56.2402 34.128C56.9602 34.864 57.7762 35.296 58.6882 35.424C59.8082 35.568 60.7122 35.344 61.4002 34.752C62.0882 34.16 62.4322 33.32 62.4322 32.232C62.4322 31.592 62.1122 30.968 61.4722 30.36C60.8482 29.752 59.9122 29.216 58.6642 28.752C57.2082 28.208 56.1122 27.464 55.3762 26.52C54.6402 25.576 54.2722 24.536 54.2722 23.4C54.2722 22.744 54.3762 22.152 54.5842 21.624C54.7922 21.08 55.0802 20.616 55.4482 20.232C55.8162 19.848 56.2642 19.552 56.7922 19.344C57.3202 19.136 57.9042 19.032 58.5442 19.032C59.1522 19.032 59.7442 19.12 60.3202 19.296H60.3682ZM73.3599 35.952H67.3359V35.376L67.6239 35.4C68.1039 35.432 68.4879 35.232 68.7759 34.8C69.0799 34.368 69.2319 33.784 69.2319 33.048V22.152C69.2319 21.416 69.0799 20.832 68.7759 20.4C68.4879 19.968 68.1039 19.768 67.6239 19.8L67.3359 19.824C67.3519 19.76 67.3519 19.656 67.3359 19.512C67.3359 19.368 67.3359 19.272 67.3359 19.224H73.6719C74.4719 19.224 75.1919 19.336 75.8319 19.56C76.4879 19.784 77.0479 20.104 77.5119 20.52C77.9759 20.92 78.3359 21.416 78.5919 22.008C78.8479 22.584 78.9759 23.224 78.9759 23.928C78.9759 24.68 78.8239 25.328 78.5199 25.872C78.2159 26.416 77.7759 26.872 77.1999 27.24C76.6399 27.592 75.9679 27.856 75.1839 28.032C74.3999 28.192 73.5279 28.272 72.5679 28.272H71.4639V33.024C71.4639 33.76 71.6079 34.344 71.8959 34.776C72.1999 35.208 72.5919 35.408 73.0719 35.376L73.3599 35.352C73.3439 35.416 73.3359 35.52 73.3359 35.664C73.3519 35.808 73.3599 35.904 73.3599 35.952ZM71.4639 27.84H72.6159C73.9119 27.84 74.9519 27.504 75.7359 26.832C76.5359 26.144 76.9359 25.072 76.9359 23.616C76.9359 22.416 76.5919 21.456 75.9039 20.736C75.2159 20.016 74.2959 19.656 73.1439 19.656H71.4639V27.84ZM96.1539 35.256H96.4899C96.4739 35.336 96.4659 35.464 96.4659 35.64C96.4819 35.8 96.4899 35.912 96.4899 35.976H89.2659V35.28H89.6979C90.4179 35.312 90.8899 35.016 91.1139 34.392C91.3379 33.768 91.2819 32.92 90.9459 31.848L90.2979 29.76H84.7059L83.9379 32.16C83.6819 33.152 83.6739 33.928 83.9139 34.488C84.1699 35.048 84.6419 35.312 85.3299 35.28H85.7619C85.7459 35.344 85.7379 35.464 85.7379 35.64C85.7539 35.816 85.7619 35.928 85.7619 35.976H79.3059C79.3219 35.912 79.3299 35.848 79.3299 35.784C79.3459 35.656 79.3539 35.568 79.3539 35.52C79.3539 35.488 79.3459 35.44 79.3299 35.376C79.3299 35.344 79.3219 35.312 79.3059 35.28H79.7619C80.5139 35.312 81.2179 35.024 81.8739 34.416C82.5299 33.808 83.0419 32.976 83.4099 31.92L87.2739 20.16C87.2579 20.128 87.2419 20.088 87.2259 20.04C87.2259 19.992 87.2179 19.952 87.2019 19.92C87.7459 19.84 88.1699 19.704 88.4739 19.512C88.7779 19.304 88.9059 19.072 88.8579 18.816H89.0739C89.1059 18.816 89.1379 18.872 89.1699 18.984C89.2179 19.096 89.2579 19.224 89.2899 19.368C89.3379 19.528 89.3859 19.712 89.4339 19.92L93.2499 31.824C93.6019 32.896 94.0419 33.744 94.5699 34.368C95.0979 34.992 95.6259 35.288 96.1539 35.256ZM84.9219 29.16H90.1299L87.5379 20.856L84.9219 29.16ZM112.834 24.24L112.666 23.664C112.41 22.736 111.962 21.928 111.322 21.24C110.698 20.552 109.978 20.096 109.162 19.872C108.634 19.728 108.042 19.656 107.386 19.656C106.506 19.656 105.706 19.848 104.986 20.232C104.266 20.616 103.642 21.16 103.114 21.864C102.602 22.568 102.202 23.416 101.914 24.408C101.642 25.384 101.506 26.472 101.506 27.672C101.506 28.872 101.642 29.968 101.914 30.96C102.186 31.952 102.562 32.8 103.042 33.504C103.538 34.208 104.13 34.752 104.818 35.136C105.522 35.52 106.298 35.712 107.146 35.712C107.53 35.712 107.89 35.688 108.226 35.64C108.562 35.576 108.89 35.496 109.21 35.4C110.026 35.128 110.746 34.656 111.37 33.984C112.01 33.296 112.45 32.512 112.69 31.632L112.858 31.008C112.858 31.024 112.89 31.04 112.954 31.056C113.018 31.072 113.09 31.08 113.17 31.08C113.25 31.08 113.322 31.072 113.386 31.056C113.45 31.04 113.482 31.024 113.482 31.008V36C113.482 35.968 113.402 35.952 113.242 35.952C113.082 35.952 113.002 35.968 113.002 36L112.93 35.544C112.898 35.32 112.658 35.216 112.21 35.232C111.778 35.232 111.218 35.344 110.53 35.568C109.522 35.984 108.322 36.192 106.93 36.192C105.746 36.192 104.666 35.992 103.69 35.592C102.73 35.176 101.906 34.592 101.218 33.84C100.53 33.088 99.9943 32.184 99.6103 31.128C99.2423 30.072 99.0583 28.904 99.0583 27.624C99.0583 26.344 99.2503 25.176 99.6343 24.12C100.034 23.064 100.586 22.16 101.29 21.408C101.994 20.656 102.842 20.08 103.834 19.68C104.826 19.264 105.93 19.056 107.146 19.056C107.866 19.056 108.498 19.104 109.042 19.2C109.586 19.296 110.082 19.432 110.53 19.608C111.218 19.832 111.778 19.96 112.21 19.992C112.642 20.024 112.874 19.944 112.906 19.752L112.978 19.32C112.978 19.352 113.058 19.368 113.218 19.368C113.378 19.368 113.458 19.352 113.458 19.32V24.24C113.458 24.208 113.426 24.192 113.362 24.192C113.298 24.176 113.226 24.168 113.146 24.168C113.066 24.168 112.994 24.176 112.93 24.192C112.866 24.192 112.834 24.208 112.834 24.24ZM128.054 19.488L128.078 19.536C128.142 20.032 128.206 20.576 128.27 21.168C128.334 21.76 128.398 22.304 128.462 22.8C128.398 22.768 128.318 22.76 128.222 22.776C128.126 22.792 128.046 22.8 127.982 22.8L127.838 22.344C127.614 21.576 127.142 20.96 126.422 20.496C125.718 20.016 124.894 19.776 123.95 19.776H121.094V26.904H122.534C123.478 26.904 124.27 26.672 124.91 26.208C125.566 25.728 125.958 25.104 126.086 24.336L126.182 23.88C126.246 23.896 126.302 23.904 126.35 23.904C126.462 23.92 126.526 23.928 126.542 23.928C126.558 23.928 126.582 23.92 126.614 23.904C126.63 23.904 126.646 23.896 126.662 23.88V30.432C126.598 30.4 126.518 30.392 126.422 30.408C126.326 30.424 126.246 30.432 126.182 30.432L126.086 29.976C125.958 29.208 125.566 28.592 124.91 28.128C124.27 27.648 123.478 27.408 122.534 27.408H121.094V31.128C121.094 31.72 121.134 32.272 121.214 32.784C121.294 33.28 121.462 33.72 121.718 34.104C121.974 34.472 122.342 34.776 122.822 35.016C123.318 35.24 123.982 35.392 124.814 35.472C125.726 35.376 126.51 35.128 127.166 34.728C127.838 34.312 128.286 33.792 128.51 33.168L128.654 32.736C128.718 32.752 128.774 32.76 128.822 32.76C128.934 32.776 128.998 32.784 129.014 32.784C129.03 32.784 129.054 32.776 129.086 32.76C129.102 32.76 129.118 32.752 129.134 32.736C129.054 33.2 128.966 33.704 128.87 34.248C128.79 34.792 128.71 35.296 128.63 35.76L128.582 35.976H116.558V35.4L116.918 35.424C117.51 35.456 117.982 35.216 118.334 34.704C118.702 34.192 118.886 33.504 118.886 32.64V22.632C118.886 21.768 118.702 21.08 118.334 20.568C117.982 20.056 117.51 19.816 116.918 19.848L116.558 19.872C116.574 19.808 116.574 19.704 116.558 19.56C116.558 19.416 116.558 19.32 116.558 19.272H128.03L128.054 19.488ZM137.942 19.824L137.99 19.8C136.886 19.816 135.934 20.048 135.134 20.496C134.35 20.928 133.854 21.504 133.646 22.224L133.502 22.656C133.47 22.64 133.438 22.632 133.406 22.632C133.342 22.616 133.302 22.608 133.286 22.608C133.254 22.608 133.206 22.616 133.142 22.632C133.11 22.632 133.078 22.64 133.046 22.656C133.11 22 133.158 21.432 133.19 20.952C133.238 20.472 133.278 20.112 133.31 19.872H133.286L133.358 19.248H145.382V19.704L134.99 35.448L141.254 35.328C142.262 35.248 143.15 34.992 143.918 34.56C144.686 34.128 145.206 33.576 145.478 32.904L145.646 32.472C145.646 32.52 145.718 32.544 145.862 32.544C146.022 32.544 146.102 32.528 146.102 32.496L145.382 35.616H145.334L145.262 35.952H132.326V35.496L142.934 19.752L137.942 19.824ZM158.368 27.696C157.816 30.312 158.92 32.04 161.152 32.04C163.096 32.04 164.536 30.72 165.016 28.44C165.568 25.824 164.44 24.12 162.208 24.12C160.24 24.12 158.872 25.416 158.368 27.696ZM156.856 28.08C157.408 25.512 159.736 23.76 162.616 23.76C163.456 23.76 164.2 23.904 164.8 24.192C166 22.944 167.2 22.2 168.112 22.2C169.288 22.2 169.528 23.448 168.544 24.48C168.52 23.784 168.04 23.376 167.272 23.376C166.576 23.376 165.808 23.712 165.04 24.336C166.312 25.032 166.888 26.4 166.528 28.08C165.976 30.624 163.648 32.4 160.792 32.4C159.88 32.4 159.112 32.232 158.488 31.92C158.128 32.328 157.912 32.664 157.84 33C157.72 33.6 158.08 33.96 159.04 34.128C160.432 34.368 162.52 34.152 164.008 34.416C165.64 34.704 166.336 35.544 166.048 36.912C165.544 39.288 162.568 41.04 159.016 41.04C155.896 41.04 154.048 39.696 154.456 37.728C154.696 36.624 155.536 35.904 156.496 35.904C156.688 35.904 156.856 35.928 157.048 35.976C156.616 36.144 156.328 36.6 156.184 37.296C155.752 39.288 157.144 40.632 159.64 40.632C162.256 40.632 164.92 39.192 165.256 37.56C165.448 36.696 164.92 36.144 163.744 35.856C162.208 35.496 160.048 35.712 158.56 35.544C157.144 35.376 156.52 34.872 156.712 34.056C156.832 33.408 157.432 32.568 158.248 31.776C157.048 31.056 156.496 29.736 156.856 28.08ZM173.197 35.688C175.309 35.688 177.781 33 178.429 29.952L179.269 26.04C179.317 25.8 179.341 25.584 179.341 25.416C179.341 24.744 179.029 24.408 178.405 24.408L178.453 24.24C179.725 24.24 180.637 24.072 181.189 23.76L178.837 34.8C178.741 35.256 178.837 35.448 179.053 35.448C179.269 35.448 179.461 35.232 179.581 34.8H179.749C179.557 35.64 179.101 36.072 178.357 36.072C177.589 36.072 177.229 35.592 177.397 34.8L177.997 31.944C176.725 34.584 174.589 36.24 172.453 36.24C170.413 36.24 169.501 34.728 170.005 32.304L171.349 26.04C171.397 25.8 171.421 25.584 171.421 25.416C171.421 24.744 171.109 24.408 170.485 24.408L170.533 24.24C171.805 24.24 172.717 24.072 173.269 23.76L171.517 32.04C171.037 34.296 171.685 35.688 173.197 35.688ZM186.054 20.688C186.174 20.112 186.75 19.656 187.326 19.656C187.902 19.656 188.262 20.112 188.142 20.688C188.022 21.24 187.446 21.696 186.87 21.696C186.294 21.696 185.934 21.24 186.054 20.688ZM185.046 34.8C184.95 35.256 185.046 35.448 185.262 35.448C185.502 35.448 185.67 35.232 185.79 34.8H185.958C185.79 35.64 185.31 36.072 184.566 36.072C183.798 36.072 183.438 35.616 183.606 34.8L185.478 26.04C185.526 25.8 185.55 25.584 185.55 25.416C185.55 24.744 185.238 24.408 184.614 24.408L184.662 24.24C185.886 24.24 186.798 24.072 187.398 23.76L185.046 34.8ZM199.296 34.8C199.2 35.256 199.296 35.448 199.512 35.448C199.728 35.448 199.92 35.232 200.04 34.8H200.208C200.016 35.64 199.56 36.072 198.816 36.072C198.024 36.072 197.688 35.616 197.856 34.8L197.976 34.248C196.776 35.568 195.336 36.24 193.632 36.24C190.32 36.24 188.64 33.744 189.432 30.024C190.224 26.304 193.032 23.76 196.344 23.76C197.88 23.76 199.08 24.288 199.872 25.296L201 19.992C201.048 19.776 201.072 19.56 201.072 19.368C201.072 18.72 200.76 18.408 200.136 18.408L200.184 18.24C201.408 18.24 202.32 18.072 202.92 17.76L199.296 34.8ZM198.264 32.928L199.392 27.528C199.296 25.464 197.952 24.12 195.984 24.12C193.584 24.12 191.784 26.064 191.064 29.472C190.248 33.312 191.448 35.88 194.064 35.88C195.744 35.88 197.232 34.824 198.264 32.928ZM205.354 29.16H212.794C213.13 25.944 212.098 24.12 209.914 24.12C207.73 24.12 206.05 25.992 205.354 29.16ZM203.722 30C204.49 26.352 207.25 23.76 210.322 23.76C213.226 23.76 214.762 26.04 214.186 29.52H205.282C204.562 33.24 205.978 35.64 208.954 35.64C210.394 35.64 211.642 35.04 212.914 33.744H213.25C211.786 35.472 210.274 36.24 208.258 36.24C204.802 36.24 202.93 33.696 203.722 30Z" fill="#584139"/>
<defs>
<linearGradient id="paint0_linear_291_2888" x1="20" y1="-3.63639" x2="19.2702" y2="39.9878" gradientUnits="userSpaceOnUse">
<stop stop-color="#584139"/>
<stop offset="1" stop-color="#F0DAC0"/>
</linearGradient>
<linearGradient id="paint1_linear_291_2888" x1="20" y1="-2.72704" x2="19.6201" y2="41.8152" gradientUnits="userSpaceOnUse">
<stop stop-color="#584139"/>
<stop offset="1" stop-color="#F0DAC0"/>
</linearGradient>
<linearGradient id="paint2_linear_291_2888" x1="20.0001" y1="-3.63616" x2="20.9808" y2="41.7972" gradientUnits="userSpaceOnUse">
<stop stop-color="#584139"/>
<stop offset="1" stop-color="#F0DAC0"/>
</linearGradient>
<linearGradient id="paint3_linear_291_2888" x1="18.1819" y1="-1.81818" x2="19.1596" y2="41.7963" gradientUnits="userSpaceOnUse">
<stop stop-color="#584139"/>
<stop offset="1" stop-color="#F0DAC0"/>
</linearGradient>
<linearGradient id="paint4_linear_291_2888" x1="21.8181" y1="-1.81805" x2="20.6228" y2="41.7855" gradientUnits="userSpaceOnUse">
<stop stop-color="#9F7E74"/>
<stop offset="1" stop-color="#584139"/>
</linearGradient>
</defs>
</svg>
