<svg width="166" height="25" viewBox="0 0 166 25" fill="none" xmlns="http://www.w3.org/2000/svg">
<path d="M0.185791 20.9605H17.5798V10.6176C17.6724 10.6864 17.7623 10.7527 17.8501 10.8175C18.1081 11.008 18.3473 11.1846 18.5819 11.368C18.6253 11.4017 18.6397 11.4957 18.6397 11.5607C18.6422 14.9814 18.6422 18.4022 18.6409 21.8241C18.6409 21.854 18.637 21.8834 18.6322 21.9186C18.6292 21.9415 18.6257 21.9669 18.6229 21.9964H18.3844C17.4453 21.9964 16.5062 21.9963 15.567 21.9963C10.8595 21.9961 6.152 21.996 1.44448 22C1.27826 22 1.16143 21.9506 1.04941 21.8326C0.859049 21.6303 0.662095 21.4347 0.453469 21.2274C0.366399 21.1409 0.277296 21.0524 0.185791 20.9605Z" fill="url(#paint0_linear_245_1734)"/>
<path d="M0.185791 20.9605H17.5798V10.6176C17.6724 10.6864 17.7623 10.7527 17.8501 10.8175C18.1081 11.008 18.3473 11.1846 18.5819 11.368C18.6253 11.4017 18.6397 11.4957 18.6397 11.5607C18.6422 14.9814 18.6422 18.4022 18.6409 21.8241C18.6409 21.854 18.637 21.8834 18.6322 21.9186C18.6292 21.9415 18.6257 21.9669 18.6229 21.9964H18.3844C17.4453 21.9964 16.5062 21.9963 15.567 21.9963C10.8595 21.9961 6.152 21.996 1.44448 22C1.27826 22 1.16143 21.9506 1.04941 21.8326C0.859049 21.6303 0.662095 21.4347 0.453469 21.2274C0.366399 21.1409 0.277296 21.0524 0.185791 20.9605Z" stroke="black"/>
<path d="M16.444 18.7647V19.7969H0.171353V19.5777C0.171353 18.7907 0.171401 18.0036 0.17145 17.2166C0.171643 14.071 0.171836 10.9254 0.168945 7.77976C0.168945 7.63643 0.205079 7.54127 0.327937 7.45816C0.528255 7.32045 0.723946 7.17463 0.931041 7.02032C1.0228 6.95194 1.1168 6.8819 1.21444 6.81015V18.7659C6.3034 18.7647 11.3683 18.7647 16.444 18.7647Z" fill="url(#paint1_linear_245_1734)"/>
<path d="M16.444 18.7647V19.7969H0.171353V19.5777C0.171353 18.7907 0.171401 18.0036 0.17145 17.2166C0.171643 14.071 0.171836 10.9254 0.168945 7.77976C0.168945 7.63643 0.205079 7.54127 0.327937 7.45816C0.528255 7.32045 0.723946 7.17463 0.931041 7.02032C1.0228 6.95194 1.1168 6.8819 1.21444 6.81015V18.7659C6.3034 18.7647 11.3683 18.7647 16.444 18.7647Z" stroke="black"/>
<path d="M19.784 21.9398V21.6905C19.784 20.9849 19.7839 20.2792 19.7838 19.5735C19.7834 16.7497 19.783 13.9254 19.7888 11.1019C19.7888 10.8971 19.7225 10.7803 19.5623 10.6622C18.271 9.71484 16.9814 8.7653 15.6918 7.81576C14.6336 7.03653 13.5753 6.2573 12.5161 5.47931C12.392 5.38776 12.3414 5.29743 12.3463 5.14325C12.3547 4.89823 12.3531 4.65261 12.3514 4.39226C12.3506 4.28146 12.3499 4.168 12.3499 4.05078C12.3534 4.05335 12.357 4.0559 12.3605 4.05845C12.569 4.20924 12.7443 4.336 12.9184 4.46392C13.5446 4.92437 14.1707 5.38496 14.7968 5.84554C16.7224 7.26208 18.6477 8.67848 20.5765 10.0901C20.7656 10.2286 20.8307 10.3707 20.8307 10.6032C20.8234 13.9818 20.8246 17.3604 20.8283 20.7377C20.8283 20.8931 20.7873 21.0039 20.6753 21.1148C20.4738 21.312 20.2795 21.5164 20.0852 21.7209C20.0043 21.8061 19.9233 21.8913 19.8418 21.976C19.8237 21.9639 19.8044 21.9519 19.784 21.9398Z" fill="url(#paint2_linear_245_1734)"/>
<path d="M19.784 21.9398V21.6905C19.784 20.9849 19.7839 20.2792 19.7838 19.5735C19.7834 16.7497 19.783 13.9254 19.7888 11.1019C19.7888 10.8971 19.7225 10.7803 19.5623 10.6622C18.271 9.71484 16.9814 8.7653 15.6918 7.81576C14.6336 7.03653 13.5753 6.2573 12.5161 5.47931C12.392 5.38776 12.3414 5.29743 12.3463 5.14325C12.3547 4.89823 12.3531 4.65261 12.3514 4.39226C12.3506 4.28146 12.3499 4.168 12.3499 4.05078C12.3534 4.05335 12.357 4.0559 12.3605 4.05845C12.569 4.20924 12.7443 4.336 12.9184 4.46392C13.5446 4.92437 14.1707 5.38496 14.7968 5.84554C16.7224 7.26208 18.6477 8.67848 20.5765 10.0901C20.7656 10.2286 20.8307 10.3707 20.8307 10.6032C20.8234 13.9818 20.8246 17.3604 20.8283 20.7377C20.8283 20.8931 20.7873 21.0039 20.6753 21.1148C20.4738 21.312 20.2795 21.5164 20.0852 21.7209C20.0043 21.8061 19.9233 21.8913 19.8418 21.976C19.8237 21.9639 19.8044 21.9519 19.784 21.9398Z" stroke="black"/>
<path d="M3.41145 17.6325C3.31577 17.5616 3.22248 17.4933 3.1312 17.4263C2.88578 17.2464 2.65487 17.0772 2.43099 16.899C2.3804 16.858 2.36956 16.746 2.36956 16.6665C2.36667 15.8774 2.36687 15.0884 2.36706 14.2993C2.36711 14.1019 2.36716 13.9045 2.36716 13.7071C2.36716 13.2047 2.3672 12.7023 2.36725 12.1999C2.36744 10.1894 2.36764 8.17839 2.36475 6.16818C2.36475 6.02605 2.40088 5.93331 2.52012 5.84538C4.40114 4.46671 6.28031 3.08558 8.15983 1.70419C8.90762 1.15459 9.65546 0.604952 10.4035 0.0554091C10.4144 0.0476069 10.4269 0.0408144 10.4506 0.0278308C10.4636 0.0207705 10.4798 0.0118796 10.5011 0C10.5011 0.0733853 10.4983 0.145073 10.4955 0.215255C10.4897 0.36624 10.4841 0.510257 10.5071 0.649221C10.5842 1.12018 10.3806 1.39118 10.0012 1.6646C8.56037 2.70151 7.13042 3.75311 5.70039 4.80477C5.00249 5.31801 4.30458 5.83126 3.60537 6.34283C3.46083 6.44762 3.40904 6.55603 3.40904 6.73309C3.41372 9.48267 3.4133 12.233 3.41289 14.9829C3.41277 15.7686 3.41265 16.5542 3.41265 17.3398C3.41145 17.4217 3.41145 17.5047 3.41145 17.6323V17.6325Z" fill="url(#paint3_linear_245_1734)"/>
<path d="M3.41145 17.6325C3.31577 17.5616 3.22248 17.4933 3.1312 17.4263C2.88578 17.2464 2.65487 17.0772 2.43099 16.899C2.3804 16.858 2.36956 16.746 2.36956 16.6665C2.36667 15.8774 2.36687 15.0884 2.36706 14.2993C2.36711 14.1019 2.36716 13.9045 2.36716 13.7071C2.36716 13.2047 2.3672 12.7023 2.36725 12.1999C2.36744 10.1894 2.36764 8.17839 2.36475 6.16818C2.36475 6.02605 2.40088 5.93331 2.52012 5.84538C4.40114 4.46671 6.28031 3.08558 8.15983 1.70419C8.90762 1.15459 9.65546 0.604952 10.4035 0.0554091C10.4144 0.0476069 10.4269 0.0408144 10.4506 0.0278308C10.4636 0.0207705 10.4798 0.0118796 10.5011 0C10.5011 0.0733853 10.4983 0.145073 10.4955 0.215255C10.4897 0.36624 10.4841 0.510257 10.5071 0.649221C10.5842 1.12018 10.3806 1.39118 10.0012 1.6646C8.56037 2.70151 7.13042 3.75311 5.70039 4.80477C5.00249 5.31801 4.30458 5.83126 3.60537 6.34283C3.46083 6.44762 3.40904 6.55603 3.40904 6.73309C3.41372 9.48267 3.4133 12.233 3.41289 14.9829C3.41277 15.7686 3.41265 16.5542 3.41265 17.3398C3.41145 17.4217 3.41145 17.5047 3.41145 17.6323V17.6325Z" stroke="black"/>
<path d="M20.8272 8.86979C20.4332 8.57977 20.0532 8.30054 19.6786 8.02539C19.4279 7.84118 19.1796 7.65879 18.9313 7.4762C18.6703 7.28415 18.4094 7.09212 18.1484 6.9001C16.2703 5.51804 14.3924 4.13624 12.5174 2.74979C12.3825 2.64982 12.2994 2.65825 12.1681 2.75581C9.97834 4.37363 7.7857 5.98759 5.5936 7.60115C5.33436 7.79197 5.07513 7.98279 4.81591 8.1736C4.75519 8.2184 4.69365 8.26154 4.6102 8.32004C4.59268 8.33233 4.57419 8.34529 4.55454 8.35909C4.55454 8.24837 4.55407 8.14031 4.55361 8.03424C4.55227 7.72377 4.55099 7.43042 4.56177 7.13774C4.56418 7.0727 4.65211 6.99923 4.71715 6.95105C6.24685 5.82365 7.77775 4.69865 9.30865 3.57366C10.2771 2.86181 11.2455 2.14996 12.2103 1.43329C12.3151 1.35499 12.3801 1.35379 12.4873 1.43329C15.2094 3.44117 17.934 5.44664 20.6609 7.44729C20.7838 7.53763 20.8368 7.63038 20.8308 7.78455C20.8223 8.02485 20.8239 8.26634 20.8257 8.52553C20.8264 8.6366 20.8272 8.75092 20.8272 8.86979Z" fill="url(#paint4_linear_245_1734)"/>
<path d="M20.8272 8.86979C20.4332 8.57977 20.0532 8.30054 19.6786 8.02539C19.4279 7.84118 19.1796 7.65879 18.9313 7.4762C18.6703 7.28415 18.4094 7.09212 18.1484 6.9001C16.2703 5.51804 14.3924 4.13624 12.5174 2.74979C12.3825 2.64982 12.2994 2.65825 12.1681 2.75581C9.97834 4.37363 7.7857 5.98759 5.5936 7.60115C5.33436 7.79197 5.07513 7.98279 4.81591 8.1736C4.75519 8.2184 4.69365 8.26154 4.6102 8.32004C4.59268 8.33233 4.57419 8.34529 4.55454 8.35909C4.55454 8.24837 4.55407 8.14031 4.55361 8.03424C4.55227 7.72377 4.55099 7.43042 4.56177 7.13774C4.56418 7.0727 4.65211 6.99923 4.71715 6.95105C6.24685 5.82365 7.77775 4.69865 9.30865 3.57366C10.2771 2.86181 11.2455 2.14996 12.2103 1.43329C12.3151 1.35499 12.3801 1.35379 12.4873 1.43329C15.2094 3.44117 17.934 5.44664 20.6609 7.44729C20.7838 7.53763 20.8368 7.63038 20.8308 7.78455C20.8223 8.02485 20.8239 8.26634 20.8257 8.52553C20.8264 8.6366 20.8272 8.75092 20.8272 8.86979Z" stroke="black"/>
<path d="M30.183 7.262C30.183 8.23 30.997 9.044 33.175 10.254L35.661 11.64C38.125 13.004 39.291 14.412 39.291 16.018C39.291 18.394 36.783 20.22 33.549 20.22C31.833 20.22 29.919 19.714 28.379 18.856L28.181 14.874H28.335C29.193 18.108 31.063 19.89 33.571 19.89C35.727 19.89 37.311 18.57 37.311 16.81C37.311 15.402 36.299 14.258 33.857 12.894L31.283 11.464C29.215 10.32 28.225 9.11 28.225 7.746C28.225 5.744 30.381 4.358 33.461 4.358C35.287 4.358 36.959 4.842 37.905 5.656L38.081 8.912H37.927C37.663 6.624 35.617 4.688 33.461 4.688C31.745 4.688 30.183 5.92 30.183 7.262ZM51.9787 8.978C51.9787 11.728 49.6687 13.356 45.7967 13.356H44.2127V19.23C44.2127 19.648 44.6527 19.846 45.5327 19.846V20H41.1327V19.846C41.8587 19.846 42.2327 19.648 42.2327 19.252V5.348C42.2327 4.952 41.8587 4.754 41.1327 4.754V4.6H45.7967C49.6687 4.6 51.9787 6.228 51.9787 8.978ZM44.2127 13.026H45.5767C48.3487 13.026 49.9767 11.596 49.9767 8.978C49.9767 6.36 48.3487 4.93 45.5767 4.93H44.7187C44.3887 4.93 44.2127 5.128 44.2127 5.502V13.026ZM58.6065 4.49L64.0625 18.768C64.3485 19.494 64.7885 19.846 65.3825 19.846V20H60.9825V19.846C61.7305 19.846 62.1045 19.626 62.1045 19.186C62.1045 19.076 62.0825 18.922 62.0165 18.768L60.4105 14.544H53.8545L53.7225 14.896C53.1945 16.26 52.9305 17.316 52.9305 18.064C52.9305 18.35 53.0185 18.724 53.2165 19.164C53.4145 19.626 53.9205 19.846 54.7785 19.846V20H50.3785V19.846C51.1265 19.846 51.7865 19.076 52.3805 17.536L57.3745 4.49H58.6065ZM53.9865 14.214H60.2785L57.1325 5.942L53.9865 14.214ZM65.2046 12.278C65.2046 7.482 68.2406 4.358 72.8606 4.358C74.5766 4.358 76.2486 4.82 77.2166 5.59L77.3926 8.846H77.2386C76.3586 6.294 74.4666 4.688 72.3766 4.688C69.4946 4.688 67.2946 7.746 67.2946 11.728C67.2946 16.062 69.9786 19.89 72.9926 19.89C74.8626 19.89 76.3806 18.394 77.4586 15.468H77.6126L77.1946 18.944C76.0726 19.78 74.5766 20.22 72.8386 20.22C68.2406 20.22 65.2046 17.052 65.2046 12.278ZM80.5642 19.252V5.348C80.5642 4.952 80.1902 4.754 79.4642 4.754V4.6H89.5842L89.8262 7.284L89.6722 7.328C88.9022 5.722 87.2522 4.93 84.7662 4.93H83.6442C82.9182 4.93 82.5442 5.128 82.5442 5.524V11.508H85.3822C86.0422 11.508 86.6142 10.914 87.0762 9.748H87.2302V13.576H87.0762C86.6142 12.41 86.0422 11.816 85.3822 11.816H82.5442V19.076C82.5442 19.472 82.9182 19.67 83.6442 19.67H84.7442C87.1202 19.67 88.7922 18.702 89.7822 16.744L89.9362 16.788L89.5622 20H79.4642V19.846C80.1902 19.846 80.5642 19.648 80.5642 19.252ZM91.3477 20V19.89L101.094 4.93H98.3877C95.4397 4.93 93.3057 5.964 91.9857 8.032L91.8317 7.988L92.6237 4.6H103.426V4.71L93.6797 19.67H96.6057C99.5977 19.67 101.798 18.394 103.206 15.864L103.36 15.908L102.37 20H91.3477ZM113.652 12.388C113.146 14.786 114.158 16.37 116.204 16.37C117.986 16.37 119.306 15.16 119.746 13.07C120.252 10.672 119.218 9.11 117.172 9.11C115.368 9.11 114.114 10.298 113.652 12.388ZM112.266 12.74C112.772 10.386 114.906 8.78 117.546 8.78C118.316 8.78 118.998 8.912 119.548 9.176C120.648 8.032 121.748 7.35 122.584 7.35C123.662 7.35 123.882 8.494 122.98 9.44C122.958 8.802 122.518 8.428 121.814 8.428C121.176 8.428 120.472 8.736 119.768 9.308C120.934 9.946 121.462 11.2 121.132 12.74C120.626 15.072 118.492 16.7 115.874 16.7C115.038 16.7 114.334 16.546 113.762 16.26C113.432 16.634 113.234 16.942 113.168 17.25C113.058 17.8 113.388 18.13 114.268 18.284C115.544 18.504 117.458 18.306 118.822 18.548C120.318 18.812 120.956 19.582 120.692 20.836C120.23 23.014 117.502 24.62 114.246 24.62C111.386 24.62 109.692 23.388 110.066 21.584C110.286 20.572 111.056 19.912 111.936 19.912C112.112 19.912 112.266 19.934 112.442 19.978C112.046 20.132 111.782 20.55 111.65 21.188C111.254 23.014 112.53 24.246 114.818 24.246C117.216 24.246 119.658 22.926 119.966 21.43C120.142 20.638 119.658 20.132 118.58 19.868C117.172 19.538 115.192 19.736 113.828 19.582C112.53 19.428 111.958 18.966 112.134 18.218C112.244 17.624 112.794 16.854 113.542 16.128C112.442 15.468 111.936 14.258 112.266 12.74ZM127.245 19.714C129.181 19.714 131.447 17.25 132.041 14.456L132.811 10.87C132.855 10.65 132.877 10.452 132.877 10.298C132.877 9.682 132.591 9.374 132.019 9.374L132.063 9.22C133.229 9.22 134.065 9.066 134.571 8.78L132.415 18.9C132.327 19.318 132.415 19.494 132.613 19.494C132.811 19.494 132.987 19.296 133.097 18.9H133.251C133.075 19.67 132.657 20.066 131.975 20.066C131.271 20.066 130.941 19.626 131.095 18.9L131.645 16.282C130.479 18.702 128.521 20.22 126.563 20.22C124.693 20.22 123.857 18.834 124.319 16.612L125.551 10.87C125.595 10.65 125.617 10.452 125.617 10.298C125.617 9.682 125.331 9.374 124.759 9.374L124.803 9.22C125.969 9.22 126.805 9.066 127.311 8.78L125.705 16.37C125.265 18.438 125.859 19.714 127.245 19.714ZM139.03 5.964C139.14 5.436 139.668 5.018 140.196 5.018C140.724 5.018 141.054 5.436 140.944 5.964C140.834 6.47 140.306 6.888 139.778 6.888C139.25 6.888 138.92 6.47 139.03 5.964ZM138.106 18.9C138.018 19.318 138.106 19.494 138.304 19.494C138.524 19.494 138.678 19.296 138.788 18.9H138.942C138.788 19.67 138.348 20.066 137.666 20.066C136.962 20.066 136.632 19.648 136.786 18.9L138.502 10.87C138.546 10.65 138.568 10.452 138.568 10.298C138.568 9.682 138.282 9.374 137.71 9.374L137.754 9.22C138.876 9.22 139.712 9.066 140.262 8.78L138.106 18.9ZM151.169 18.9C151.081 19.318 151.169 19.494 151.367 19.494C151.565 19.494 151.741 19.296 151.851 18.9H152.005C151.829 19.67 151.411 20.066 150.729 20.066C150.003 20.066 149.695 19.648 149.849 18.9L149.959 18.394C148.859 19.604 147.539 20.22 145.977 20.22C142.941 20.22 141.401 17.932 142.127 14.522C142.853 11.112 145.427 8.78 148.463 8.78C149.871 8.78 150.971 9.264 151.697 10.188L152.731 5.326C152.775 5.128 152.797 4.93 152.797 4.754C152.797 4.16 152.511 3.874 151.939 3.874L151.983 3.72C153.105 3.72 153.941 3.566 154.491 3.28L151.169 18.9ZM150.223 17.184L151.257 12.234C151.169 10.342 149.937 9.11 148.133 9.11C145.933 9.11 144.283 10.892 143.623 14.016C142.875 17.536 143.975 19.89 146.373 19.89C147.913 19.89 149.277 18.922 150.223 17.184ZM156.723 13.73H163.543C163.851 10.782 162.905 9.11 160.903 9.11C158.901 9.11 157.361 10.826 156.723 13.73ZM155.227 14.5C155.931 11.156 158.461 8.78 161.277 8.78C163.939 8.78 165.347 10.87 164.819 14.06H156.657C155.997 17.47 157.295 19.67 160.023 19.67C161.343 19.67 162.487 19.12 163.653 17.932H163.961C162.619 19.516 161.233 20.22 159.385 20.22C156.217 20.22 154.501 17.888 155.227 14.5Z" fill="#584139"/>
<defs>
<linearGradient id="paint0_linear_245_1734" x1="11.1689" y1="-2.00001" x2="10.7675" y2="21.9933" gradientUnits="userSpaceOnUse">
<stop stop-color="#584139"/>
<stop offset="1" stop-color="#F0DAC0"/>
</linearGradient>
<linearGradient id="paint1_linear_245_1734" x1="11.1689" y1="-1.5" x2="10.96" y2="22.9982" gradientUnits="userSpaceOnUse">
<stop stop-color="#584139"/>
<stop offset="1" stop-color="#F0DAC0"/>
</linearGradient>
<linearGradient id="paint2_linear_245_1734" x1="11.1689" y1="-1.99998" x2="11.7083" y2="22.9884" gradientUnits="userSpaceOnUse">
<stop stop-color="#584139"/>
<stop offset="1" stop-color="#F0DAC0"/>
</linearGradient>
<linearGradient id="paint3_linear_245_1734" x1="10.1688" y1="-1" x2="10.7066" y2="22.9879" gradientUnits="userSpaceOnUse">
<stop stop-color="#584139"/>
<stop offset="1" stop-color="#F0DAC0"/>
</linearGradient>
<linearGradient id="paint4_linear_245_1734" x1="12.1689" y1="-1.00001" x2="11.5115" y2="22.982" gradientUnits="userSpaceOnUse">
<stop stop-color="#9F7E74"/>
<stop offset="1" stop-color="#584139"/>
</linearGradient>
</defs>
</svg>
