<svg width="24" height="24" viewBox="0 0 24 24" fill="none" xmlns="http://www.w3.org/2000/svg">
<mask id="mask0_1_8" style="mask-type:alpha" maskUnits="userSpaceOnUse" x="0" y="0" width="24" height="24">
<rect width="24" height="24" fill="#D9D9D9"/>
</mask>
<g mask="url(#mask0_1_8)">
<path d="M2 20V17.2C2 16.65 2.14167 16.1333 2.425 15.65C2.70833 15.1667 3.1 14.8 3.6 14.55C4.45 14.1167 5.40833 13.75 6.475 13.45C7.54167 13.15 8.71667 13 10 13C10.5 13 10.9875 13.025 11.4625 13.075C11.9375 13.125 12.4 13.2 12.85 13.3L11.1 15.05C10.9167 15.0167 10.7375 15 10.5625 15H10C8.81667 15 7.75417 15.1417 6.8125 15.425C5.87083 15.7083 5.1 16.0167 4.5 16.35C4.35 16.4333 4.22917 16.55 4.1375 16.7C4.04583 16.85 4 17.0167 4 17.2V18H10.25L12.25 20H2ZM15.55 20.4L12.1 16.95L13.5 15.55L15.55 17.6L20.6 12.55L22 13.95L15.55 20.4ZM10 12C8.9 12 7.95833 11.6083 7.175 10.825C6.39167 10.0417 6 9.1 6 8C6 6.9 6.39167 5.95833 7.175 5.175C7.95833 4.39167 8.9 4 10 4C11.1 4 12.0417 4.39167 12.825 5.175C13.6083 5.95833 14 6.9 14 8C14 9.1 13.6083 10.0417 12.825 10.825C12.0417 11.6083 11.1 12 10 12ZM10 10C10.55 10 11.0208 9.80417 11.4125 9.4125C11.8042 9.02083 12 8.55 12 8C12 7.45 11.8042 6.97917 11.4125 6.5875C11.0208 6.19583 10.55 6 10 6C9.45 6 8.97917 6.19583 8.5875 6.5875C8.19583 6.97917 8 7.45 8 8C8 8.55 8.19583 9.02083 8.5875 9.4125C8.97917 9.80417 9.45 10 10 10Z" fill="black"/>
</g>
</svg>
