<svg width="24" height="24" viewBox="0 0 24 24" fill="none" xmlns="http://www.w3.org/2000/svg">
<mask id="mask0_1_22" style="mask-type:alpha" maskUnits="userSpaceOnUse" x="0" y="0" width="24" height="24">
<rect width="24" height="24" fill="#D9D9D9"/>
</mask>
<g mask="url(#mask0_1_22)">
<path d="M16.7 15.5L20.5 12.25L21.15 12.3C21.4333 12.3333 21.6542 12.45 21.8125 12.65C21.9708 12.85 22.05 13.0666 22.05 13.3C22.05 13.4333 22.025 13.5666 21.975 13.7C21.925 13.8333 21.8333 13.95 21.7 14.05L19.1 16.325L19.875 19.7C19.8917 19.7333 19.9 19.7708 19.9 19.8125V19.925C19.9 20.2083 19.8 20.4458 19.6 20.6375C19.4 20.8291 19.1667 20.925 18.9 20.925C18.8167 20.925 18.7292 20.9125 18.6375 20.8875C18.5458 20.8625 18.4583 20.825 18.375 20.775L17.85 20.45L16.7 15.5ZM14.35 8.19995L13.3 5.74995L13.525 5.19995C13.6083 4.99995 13.7375 4.84578 13.9125 4.73745C14.0875 4.62912 14.2667 4.57495 14.45 4.57495C14.6333 4.57495 14.8125 4.62495 14.9875 4.72495C15.1625 4.82495 15.2917 4.97495 15.375 5.17495L16.75 8.42495L14.35 8.19995ZM7.35001 17.825L10.5 15.925L13.65 17.85L12.825 14.25L15.6 11.85L11.95 11.525L10.5 8.12495L9.05001 11.5L5.40001 11.825L8.17501 14.25L7.35001 17.825ZM4.85001 19.7L5.95001 14.975L2.27501 11.8C2.14168 11.7 2.05418 11.5833 2.01251 11.45C1.97085 11.3166 1.95001 11.1833 1.95001 11.05C1.95001 10.8166 2.02918 10.6 2.18751 10.4C2.34585 10.2 2.56668 10.0833 2.85001 10.05L7.70001 9.62495L9.57501 5.17495C9.65835 4.97495 9.78751 4.82495 9.96251 4.72495C10.1375 4.62495 10.3167 4.57495 10.5 4.57495C10.6833 4.57495 10.8625 4.62495 11.0375 4.72495C11.2125 4.82495 11.3417 4.97495 11.425 5.17495L13.3 9.62495L18.15 10.05C18.4333 10.0833 18.6542 10.2 18.8125 10.4C18.9708 10.6 19.05 10.8166 19.05 11.05C19.05 11.1833 19.0292 11.3166 18.9875 11.45C18.9458 11.5833 18.8583 11.7 18.725 11.8L15.05 14.975L16.15 19.7C16.1667 19.75 16.175 19.825 16.175 19.925C16.175 20.2083 16.075 20.4458 15.875 20.6375C15.675 20.8291 15.4417 20.925 15.175 20.925C15.125 20.925 14.95 20.875 14.65 20.775L10.5 18.275L6.35001 20.775C6.26668 20.825 6.17918 20.8625 6.08751 20.8875C5.99585 20.9125 5.90835 20.925 5.82501 20.925C5.52501 20.925 5.26668 20.8041 5.05001 20.5625C4.83335 20.3208 4.76668 20.0333 4.85001 19.7Z" fill="black"/>
</g>
</svg>
